<?xml version="1.0" encoding="utf-8"?><!-- Uploaded to: SVG Repo, www.svgrepo.com, Generator: SVG Repo Mixer Tools -->
<svg width="800px" height="800px" viewBox="0 0 24 24" fill="none" xmlns="http://www.w3.org/2000/svg">
<path d="M3 13H6.83726C7.08185 13 7.20414 13 7.31923 13.0276C7.42127 13.0521 7.51881 13.0925 7.60828 13.1474C7.7092 13.2092 7.79568 13.2957 7.96863 13.4686L8.56274 14.0627C8.90865 14.4086 9.0816 14.5816 9.28343 14.7053C9.46237 14.8149 9.65746 14.8957 9.86154 14.9447C10.0917 15 10.3363 15 10.8255 15H13.1745C13.6637 15 13.9083 15 14.1385 14.9447C14.3425 14.8957 14.5376 14.8149 14.7166 14.7053C14.9184 14.5816 15.0914 14.4086 15.4373 14.0627L16.0314 13.4686C16.2043 13.2957 16.2908 13.2092 16.3917 13.1474C16.4812 13.0925 16.5787 13.0521 16.6808 13.0276C16.7959 13 16.9182 13 17.1627 13H21M6.2 19H17.8C18.9201 19 19.4802 19 19.908 18.782C20.2843 18.5903 20.5903 18.2843 20.782 17.908C21 17.4802 21 16.9201 21 15.8V8.2C21 7.07989 21 6.51984 20.782 6.09202C20.5903 5.71569 20.2843 5.40973 19.908 5.21799C19.4802 5 18.9201 5 17.8 5H6.2C5.0799 5 4.51984 5 4.09202 5.21799C3.71569 5.40973 3.40973 5.71569 3.21799 6.09202C3 6.51984 3 7.07989 3 8.2V15.8C3 16.9201 3 17.4802 3.21799 17.908C3.40973 18.2843 3.71569 18.5903 4.09202 18.782C4.51984 19 5.07989 19 6.2 19Z" stroke="#000000" stroke-width="2" stroke-linecap="round" stroke-linejoin="round"/>
</svg>